<?xml version="1.0" standalone="no"?><!DOCTYPE svg PUBLIC "-//W3C//DTD SVG 1.1//EN" "http://www.w3.org/Graphics/SVG/1.1/DTD/svg11.dtd"><svg t="1625644948813" class="icon" viewBox="0 0 1027 1024" version="1.1" xmlns="http://www.w3.org/2000/svg" p-id="3888" xmlns:xlink="http://www.w3.org/1999/xlink" width="200.5859375" height="200"><defs><style type="text/css"></style></defs><path d="M400.695652 545.391304a2 2 0 1 0 89.043478 0 2 2 0 1 0-89.043478 0Z" p-id="3889"></path><path d="M222.608696 545.391304a2 2 0 1 0 89.043478 0 2 2 0 1 0-89.043478 0Z" p-id="3890"></path><path d="M581.008696 545.391304a2 2 0 1 0 89.043478 0 2 2 0 1 0-89.043478 0Z" p-id="3891"></path><path d="M447.443478 115.756522C200.347826 115.756522 0 296.069565 0 518.678261c0 140.243478 80.13913 264.904348 200.347826 336.13913l0 162.504348 153.6-104.626087c28.93913 6.678261 60.104348 8.904348 91.269565 8.904348 247.095652 0 447.443478-180.313043 447.443478-402.921739S692.313043 115.756522 447.443478 115.756522zM447.443478 877.078261c-11.130435 0-22.26087 0-33.391304-2.226087 0 0-2.226087 0-2.226087 0l0 0c-22.26087-2.226087-42.295652-4.452174-62.330435-8.904348l0 0c0 0 0 0 0 0 0 0 0 0 0 0l-46.747826 33.391304c0 0 0 0 0 0l-53.426087 37.843478 0 0 0 0 0-55.652174 0-4.452174c0 0 0 0 0 0l0-48.973913c0 0 0 0 0 0 0 0 0 0 0 0l0 0c-15.582609-8.904348-31.165217-17.808696-44.521739-26.713043l0 0C200.347826 801.391304 200.347826 801.391304 198.121739 801.391304c-8.904348-6.678261-17.808696-13.356522-26.713043-22.26087-2.226087-2.226087-2.226087-2.226087-4.452174-4.452174-4.452174-2.226087-6.678261-6.678261-11.130435-11.130435-2.226087-2.226087-4.452174-4.452174-4.452174-4.452174-4.452174-4.452174-6.678261-6.678261-11.130435-11.130435-2.226087-2.226087-4.452174-4.452174-4.452174-6.678261-2.226087-4.452174-6.678261-6.678261-8.904348-11.130435-2.226087-2.226087-4.452174-4.452174-4.452174-6.678261-2.226087-4.452174-6.678261-6.678261-8.904348-11.130435-2.226087-2.226087-2.226087-4.452174-4.452174-6.678261-2.226087-4.452174-4.452174-6.678261-6.678261-11.130435-2.226087-2.226087-2.226087-4.452174-4.452174-6.678261-4.452174-6.678261-8.904348-13.356522-11.130435-20.034783-2.226087-2.226087-2.226087-6.678261-4.452174-8.904348-2.226087-2.226087-2.226087-6.678261-4.452174-8.904348-2.226087-4.452174-2.226087-6.678261-4.452174-11.130435C66.782609 636.66087 66.782609 634.434783 64.556522 629.982609c-2.226087-4.452174-2.226087-6.678261-4.452174-11.130435 0-2.226087-2.226087-6.678261-2.226087-8.904348-2.226087-4.452174-2.226087-8.904348-2.226087-13.356522 0-2.226087-2.226087-6.678261-2.226087-8.904348 0-4.452174-2.226087-8.904348-2.226087-13.356522 0-2.226087 0-6.678261-2.226087-8.904348 0-4.452174-2.226087-11.130435-2.226087-15.582609 0-2.226087 0-4.452174 0-6.678261 0-6.678261 0-15.582609 0-22.26087 0-198.121739 180.313043-358.4 400.695652-358.4 222.608696 0 400.695652 160.278261 400.695652 358.4C848.13913 716.8 667.826087 877.078261 447.443478 877.078261z" p-id="3892"></path><path d="M901.565217 687.86087c77.913043-73.46087 124.66087-171.408696 124.66087-280.486957 0-222.608696-200.347826-402.921739-447.443478-402.921739-104.626087 0-200.347826 33.391304-276.034783 86.817391 42.295652-11.130435 89.043478-17.808696 135.791304-17.808696 44.521739-13.356522 91.269565-22.26087 140.243478-22.26087 222.608696 0 400.695652 160.278261 400.695652 358.4 0 62.330435-17.808696 122.434783-48.973913 173.634783C926.052174 616.626087 917.147826 654.469565 901.565217 687.86087z" p-id="3893"></path></svg>